<svg xmlns="http://www.w3.org/2000/svg" viewBox="0 0 300 300" width="100%" height="100%">
  <defs>
    <linearGradient id="logo-grad" x1="0%" y1="100%" x2="100%" y2="0%">
      <stop offset="0%" stop-color="#0f3459"/>
      <stop offset="50%" stop-color="#1b6b66"/>
      <stop offset="100%" stop-color="#2ea64e"/>
    </linearGradient>
    
    <clipPath id="globe-clip">
      <circle cx="195" cy="170" r="35" />
    </clipPath>
  </defs>

  <g stroke="url(#logo-grad)">
    <g clip-path="url(#globe-clip)" fill="none" stroke-width="2.5">
      <line x1="195" y1="130" x2="195" y2="210" />
      <ellipse cx="195" cy="170" rx="12" ry="35" />
      <ellipse cx="195" cy="170" rx="24" ry="35" />
      <line x1="150" y1="170" x2="240" y2="170" />
      <ellipse cx="195" cy="170" rx="35" ry="12" />
      <ellipse cx="195" cy="170" rx="35" ry="24" />
    </g>
    <circle cx="195" cy="170" r="35" fill="none" stroke-width="3"/>
  </g>

  <g fill="none" stroke="url(#logo-grad)" stroke-width="8" stroke-linecap="round">
    <path d="M 180,110 A 35,35 0 0,1 210,90" />
    <path d="M 180,85 A 60,60 0 0,1 230,65" />
    <path d="M 180,60 A 85,85 0 0,1 250,40" />
  </g>
  <circle cx="170" cy="130" r="5" fill="url(#logo-grad)" />

  <path d="M 85,115 L 88,155 C 96,157 96,167 88,170 L 86,209 L 84,209 L 82,170 C 74,167 74,157 82,155 Z" fill="url(#logo-grad)"/>

  <polygon points="115,100 118,209 112,209" fill="url(#logo-grad)"/>

  <polygon points="150,75 152,130 148,130" fill="url(#logo-grad)"/>
  <ellipse cx="150" cy="133" rx="8" ry="4" fill="url(#logo-grad)"/>
  <rect x="147" y="137" width="6" height="13" fill="url(#logo-grad)"/>
  <ellipse cx="150" cy="155" rx="20" ry="12" fill="url(#logo-grad)"/>
  <polygon points="144,166 156,166 160,209 140,209" fill="url(#logo-grad)"/>

  <path d="M 60,210 Q 150,200 240,210 Q 150,204 60,210 Z" fill="url(#logo-grad)"/>

</svg>
