<svg viewBox="0 0 500 500" xmlns="http://www.w3.org/2000/svg">
  <defs>
    <linearGradient id="mainGradient" x1="0%" y1="100%" x2="100%" y2="0%">
      <stop offset="0%" stop-color="#0d3b66"/>
      <stop offset="50%" stop-color="#1a5f7a"/>
      <stop offset="100%" stop-color="#2ea854"/>
    </linearGradient>
  </defs>

  <g transform="translate(25, 40)">
    <g transform="translate(310, 260)">
      <circle cx="0" cy="0" r="65" fill="none" stroke="url(#mainGradient)" stroke-width="6"/>
      <line x1="-60" y1="-22" x2="60" y2="-22" stroke="url(#mainGradient)" stroke-width="4"/>
      <line x1="-65" y1="0" x2="65" y2="0" stroke="url(#mainGradient)" stroke-width="4"/>
      <line x1="-60" y1="22" x2="60" y2="22" stroke="url(#mainGradient)" stroke-width="4"/>
      <ellipse cx="0" cy="0" rx="22" ry="65" fill="none" stroke="url(#mainGradient)" stroke-width="4"/>
      <ellipse cx="0" cy="0" rx="44" ry="65" fill="none" stroke="url(#mainGradient)" stroke-width="4"/>
      <line x1="0" y1="-65" x2="0" y2="65" stroke="url(#mainGradient)" stroke-width="4"/>
    </g>

    <path d="M 210 320 L 260 320 L 235 90 Z" fill="url(#mainGradient)"/>
    <circle cx="235" cy="225" r="34" fill="url(#mainGradient)"/>
    <rect x="200" y="221" width="70" height="8" rx="2" fill="url(#mainGradient)"/>
    <circle cx="235" cy="145" r="19" fill="url(#mainGradient)"/>

    <path d="M 175 320 L 195 320 L 185 150 Z" fill="url(#mainGradient)"/>

    <path d="M 130 320 L 155 320 L 142.5 140 Z" fill="url(#mainGradient)"/>
    <circle cx="142.5" cy="230" r="23" fill="url(#mainGradient)"/>

    <circle cx="265" cy="170" r="12" fill="url(#mainGradient)"/>
    <path d="M 282 145 A 35 35 0 0 1 315 178" fill="none" stroke="url(#mainGradient)" stroke-width="10" stroke-linecap="round"/>
    <path d="M 298 115 A 65 65 0 0 1 345 162" fill="none" stroke="url(#mainGradient)" stroke-width="10" stroke-linecap="round"/>
    <path d="M 314 85 A 95 95 0 0 1 375 146" fill="none" stroke="url(#mainGradient)" stroke-width="10" stroke-linecap="round"/>

    <path d="M 90 325 Q 240 290 390 325 Q 240 310 90 325 Z" fill="url(#mainGradient)"/>
  </g>
</svg>
